<svg width="20" height="21" viewBox="0 0 20 21" fill="none" xmlns="http://www.w3.org/2000/svg">
<g id="Frame">
<path id="Vector" d="M8.82031 18.5898L8.72266 18.5L1.87891 12.1445C0.679687 11.0312 0 9.46874 0 7.83202V7.70312C0 4.95312 1.95312 2.59374 4.65625 2.07812C6.19531 1.78124 7.76953 2.13671 9.02344 3.01952C9.375 3.26952 9.70312 3.55859 10 3.89062C10.1641 3.70312 10.3398 3.53124 10.5273 3.37109C10.6719 3.24609 10.8203 3.1289 10.9766 3.01952C12.2305 2.13671 13.8047 1.78124 15.3438 2.07421C18.0469 2.58984 20 4.95312 20 7.70312V7.83202C20 9.46874 19.3203 11.0312 18.1211 12.1445L11.2773 18.5L11.1797 18.5898C10.8594 18.8867 10.4375 19.0547 10 19.0547C9.5625 19.0547 9.14062 18.8906 8.82031 18.5898ZM9.33984 5.96484C9.32422 5.95312 9.3125 5.93749 9.30078 5.92187L8.60547 5.14062L8.60156 5.13671C7.69922 4.12499 6.33594 3.66406 5.00781 3.91796C3.1875 4.26562 1.875 5.85156 1.875 7.70312V7.83202C1.875 8.94531 2.33984 10.0117 3.15625 10.7695L10 17.125L16.8438 10.7695C17.6602 10.0117 18.125 8.94531 18.125 7.83202V7.70312C18.125 5.85546 16.8125 4.26562 14.9961 3.91796C13.668 3.66406 12.3008 4.1289 11.4023 5.13671C11.4023 5.13671 11.4023 5.13671 11.3984 5.14062C11.3945 5.14452 11.3984 5.14062 11.3945 5.14452L10.6992 5.92577C10.6875 5.9414 10.6719 5.95312 10.6602 5.96874C10.4844 6.14452 10.2461 6.24218 10 6.24218C9.75391 6.24218 9.51562 6.14452 9.33984 5.96874V5.96484Z" fill="white"/>
</g>
</svg>
