<svg width="12" height="13" viewBox="0 0 12 13" fill="none" xmlns="http://www.w3.org/2000/svg">
<g id="Frame">
<path id="Vector" d="M7.22475 1.11327C6.37242 0.870068 5.48215 1.36317 5.23895 2.21551L5.11177 2.66175C5.02921 2.95181 4.87972 3.21956 4.67668 3.44269L3.53205 4.7011C3.33347 4.91977 3.34909 5.25891 3.56775 5.45749C3.78641 5.65607 4.12556 5.64046 4.32414 5.42179L5.46877 4.16338C5.78337 3.81753 6.01319 3.40476 6.14037 2.95628L6.26755 2.51003C6.34787 2.22666 6.64463 2.06155 6.93023 2.14187C7.21582 2.2222 7.37871 2.51895 7.29838 2.80455L7.1712 3.2508C7.04402 3.69482 6.84321 4.11429 6.57769 4.48914C6.46167 4.65202 6.44828 4.86622 6.53976 5.04472C6.63124 5.22321 6.8142 5.33478 7.01501 5.33478H9.99595C10.1923 5.33478 10.3529 5.49543 10.3529 5.69177C10.3529 5.8435 10.257 5.97514 10.1209 6.02646C9.95578 6.08893 9.83084 6.22727 9.78844 6.39908C9.74605 6.57088 9.79067 6.75161 9.9067 6.88326C9.96248 6.94573 9.99595 7.02829 9.99595 7.11977C9.99595 7.2938 9.871 7.43883 9.70589 7.47007C9.52292 7.50577 9.36897 7.63295 9.30426 7.80922C9.23956 7.98549 9.26856 8.18184 9.38459 8.3291C9.43144 8.38934 9.46045 8.4652 9.46045 8.54999C9.46045 8.69948 9.36674 8.83113 9.23286 8.88244C8.97627 8.98285 8.83793 9.25952 8.91157 9.52504C8.92049 9.55405 8.92495 9.58752 8.92495 9.62099C8.92495 9.81733 8.7643 9.97798 8.56796 9.97798H6.3925C6.11136 9.97798 5.83469 9.89543 5.60041 9.73924L4.22373 8.8222C3.9783 8.65709 3.64584 8.72403 3.48073 8.97169C3.31562 9.21936 3.38256 9.54958 3.63022 9.7147L5.0069 10.6317C5.41745 10.9062 5.89939 11.0512 6.3925 11.0512H8.56796C9.34219 11.0512 9.9714 10.4354 9.99595 9.66784C10.3217 9.40679 10.5314 9.00516 10.5314 8.55222C10.5314 8.45182 10.5203 8.35587 10.5024 8.26216C10.846 8.00111 11.0669 7.58833 11.0669 7.12423C11.0669 6.9792 11.0446 6.83863 11.0045 6.70699C11.2633 6.4437 11.4239 6.0867 11.4239 5.69177C11.4239 4.90415 10.7858 4.26378 9.99595 4.26378H7.93651C8.04138 4.03173 8.13063 3.79076 8.1998 3.54532L8.32698 3.09908C8.57019 2.24674 8.07708 1.35648 7.22475 1.11327ZM0.713996 4.62078C0.319067 4.62078 0 4.93985 0 5.33478V10.3327C0 10.7277 0.319067 11.0467 0.713996 11.0467H2.14199C2.53692 11.0467 2.85598 10.7277 2.85598 10.3327V5.33478C2.85598 4.93985 2.53692 4.62078 2.14199 4.62078H0.713996Z" fill="#006633"/>
</g>
</svg>
