<svg width="8" height="10" viewBox="0 0 8 10" fill="none" xmlns="http://www.w3.org/2000/svg">
<g id="Frame" clip-path="url(#clip0_11_831)">
<path id="Vector" d="M4.49375 9.75C5.5625 8.49609 8 5.45703 8 3.75C8 1.67969 6.20833 0 4 0C1.79167 0 0 1.67969 0 3.75C0 5.45703 2.4375 8.49609 3.50625 9.75C3.7625 10.0488 4.2375 10.0488 4.49375 9.75ZM4 2.5C4.35362 2.5 4.69276 2.6317 4.94281 2.86612C5.19286 3.10054 5.33333 3.41848 5.33333 3.75C5.33333 4.08152 5.19286 4.39946 4.94281 4.63388C4.69276 4.8683 4.35362 5 4 5C3.64638 5 3.30724 4.8683 3.05719 4.63388C2.80714 4.39946 2.66667 4.08152 2.66667 3.75C2.66667 3.41848 2.80714 3.10054 3.05719 2.86612C3.30724 2.6317 3.64638 2.5 4 2.5Z" fill="#006633"/>
</g>
<defs>
<clipPath id="clip0_11_831">
<rect width="8" height="10" fill="white"/>
</clipPath>
</defs>
</svg>
