<svg width="18" height="21" viewBox="0 0 18 21" fill="none" xmlns="http://www.w3.org/2000/svg">
<g id="Frame" clip-path="url(#clip0_11_842)">
<path id="Vector" d="M13.75 9.05078C15.8203 9.05078 17.5 7.37109 17.5 5.30078C17.5 3.23047 15.8203 1.55078 13.75 1.55078C11.6797 1.55078 10 3.23047 10 5.30078C10 5.45703 10.0078 5.61328 10.0273 5.76562L6.35156 7.60156C5.67969 6.94922 4.76172 6.55078 3.75 6.55078C1.67969 6.55078 0 8.23047 0 10.3008C0 12.3711 1.67969 14.0508 3.75 14.0508C4.76172 14.0508 5.67969 13.6523 6.35156 13L10.0273 14.8359C10.0078 14.9883 10 15.1406 10 15.3008C10 17.3711 11.6797 19.0508 13.75 19.0508C15.8203 19.0508 17.5 17.3711 17.5 15.3008C17.5 13.2305 15.8203 11.5508 13.75 11.5508C12.7383 11.5508 11.8203 11.9492 11.1484 12.6016L7.47266 10.7656C7.49219 10.6133 7.5 10.4609 7.5 10.3008C7.5 10.1406 7.49219 9.98828 7.47266 9.83594L11.1484 8C11.8203 8.65234 12.7383 9.05078 13.75 9.05078Z" fill="white"/>
</g>
<defs>
<clipPath id="clip0_11_842">
<rect width="17.5" height="20" fill="white" transform="translate(0 0.300781)"/>
</clipPath>
</defs>
</svg>
