<svg width="164" height="164" viewBox="0 0 164 164" fill="none" xmlns="http://www.w3.org/2000/svg">
<g clip-path="url(#clip0_2_63)">
<path d="M164 82C164 36.7126 127.287 0 82 0C36.7126 0 0 36.7126 0 82C0 127.287 36.7126 164 82 164C127.287 164 164 127.287 164 82Z" fill="#006633"/>
<path d="M47.9515 75.6202H46.1326L45.3335 71.2109C44.3138 69.1716 43.3493 67.8212 40.9241 67.1598C38.6368 67.1598 36.8179 68.7306 35.6053 71.7345C34.6408 74.1596 34.1447 76.1438 33.566 79.506C33.1526 81.9862 32.9597 84.2736 33.0975 86.2578C33.2904 89.3443 34.8337 91.0254 37.5069 91.0254C40.8966 91.0254 43.487 88.9034 45.8295 84.3838L47.7586 85.7066C45.4161 90.9703 41.7233 95.1316 35.1368 95.1316C29.6527 95.1316 24.0308 91.8246 23.9206 84.5767C23.8655 81.9862 24.2237 79.506 24.8851 77.2186C27.0622 70.0259 33.9518 64.6796 40.9517 64.6796C45.609 64.6796 48.1995 66.1401 49.5223 67.1598L47.9515 75.6202Z" fill="white"/>
<path d="M64.6521 85.9546C64.404 86.9743 64.156 87.994 64.156 88.8483C64.156 90.0057 64.7072 90.612 65.8371 90.612C67.1048 90.612 68.4276 89.5923 69.585 87.8286L71.211 89.0412C68.5654 93.4505 65.4237 95.1316 61.4828 95.1316C57.1286 95.1316 55.0342 92.9545 55.0342 90.1711C55.0342 89.3994 55.1444 88.49 55.3373 87.8286L63.7977 53.8491L59.5813 52.5263L60.0774 50.7074H73.4156L64.6796 85.9546H64.6521Z" fill="white"/>
<path d="M83.6123 86.0098C83.3643 86.9743 83.0611 88.3522 83.1438 89.0136C83.1989 90.1711 83.8052 90.5844 84.88 90.5844C86.1477 90.5844 87.4705 89.427 88.5728 87.8011L90.1987 89.0136C87.9114 92.9269 84.7146 95.104 80.6084 95.104C76.144 95.104 74.1046 92.9269 74.022 90.1435C74.022 89.5923 74.1322 88.4625 74.3251 87.8562L79.0927 68.7306L75.2345 67.1598L75.6479 65.5339H88.7382L83.6123 85.9822V86.0098ZM85.4311 60.2978C82.5926 60.2978 80.3053 58.0104 80.2502 55.1719C80.2502 52.3334 82.4273 50.0461 85.2658 50.0461C88.1043 50.0461 90.3365 52.3334 90.3365 55.1719C90.4468 58.0104 88.2145 60.2978 85.4587 60.2978H85.4311Z" fill="white"/>
<path d="M114.671 75.3171H112.934L112.08 70.9077C110.812 68.8684 109.6 67.463 106.706 67.1047C103.564 67.1047 101.939 68.5653 101.939 70.6046C101.939 73.14 103.757 74.0494 108.167 76.3919C112.741 78.817 114.56 81.3524 114.56 85.3759C114.56 90.7498 109.738 95.104 101.635 95.104C95.2418 95.104 92.4585 93.4781 90.364 92.2655L92.1277 82.7854H93.9466L95.0214 88.0215C96.3442 90.364 99.1276 92.2379 102.076 92.5962C104.915 92.5411 106.954 91.0254 106.954 87.9388C106.954 85.5137 104.116 84.3838 100.257 82.1516C95.4899 79.4233 94.4151 76.7777 94.5253 73.3329C94.7182 68.3173 99.2378 64.5969 106.596 64.5969C111.556 64.5969 114.615 65.9748 116.241 66.9393L114.671 75.262V75.3171Z" fill="white"/>
<path d="M139.528 68.2621H132.831L128.67 85.9546C128.477 86.8089 128.312 87.6908 128.312 88.5451C128.312 90.1711 129.028 90.5844 130.186 90.5844C131.454 90.5844 133.024 89.3719 134.182 87.6357L135.698 88.8483C133.052 93.2025 130.158 95.1316 125.143 95.1316C121.284 95.1316 119.052 92.9545 119.052 90.1711C119.052 89.4546 119.162 88.6002 119.3 87.994L123.875 68.8684L119.659 67.4905L120.265 65.5614H124.371C127.099 63.9355 130.406 61.1521 133.107 56.7427H135.698L133.576 65.5614H140.382L139.528 68.2897V68.2621Z" fill="white"/>
<path d="M58.5341 122.304L58.1483 121.257C57.0184 121.946 55.6405 122.607 53.6287 122.607C49.3296 122.607 48.0068 119.521 48.0068 115.828C48.0068 114.808 48.1446 113.541 48.3651 112.521C49.3572 107.726 52.4437 102.765 57.983 102.765C60.4632 102.765 62.0341 103.702 62.723 104.143L61.6207 108.47H61.0971L60.7939 105.742C60.3254 104.722 59.6916 103.785 57.7901 103.592C55.4476 103.592 53.7665 105.135 52.6642 107.478C52.1957 108.47 51.5619 110.289 51.0383 112.659C50.5147 115.111 50.432 116.93 50.432 117.785C50.432 120.127 51.369 121.753 53.8768 121.753C55.2822 121.753 56.8255 120.926 57.2389 120.155L58.4515 115.718L56.1917 115.084L56.3295 114.56H62.8608L62.723 115.084L60.7664 115.718L59.0026 122.304H58.5341Z" fill="white"/>
<path d="M66.6362 115.855C66.6362 114.009 66.9394 112.08 67.5732 110.261C68.9787 106.182 71.8723 102.765 75.9785 102.765C79.5611 102.765 81.2146 105.576 81.2146 109.627C81.2146 111.198 80.9942 112.824 80.5532 114.367C79.258 118.859 76.1714 122.635 71.8448 122.635C68.0968 122.635 66.6362 119.548 66.6362 115.855ZM76.5021 118.005C76.9706 116.985 77.6045 115.415 78.1832 112.714C78.7344 110.096 78.7895 108.553 78.7895 107.423C78.7895 105.163 77.8801 103.62 75.7581 103.62C73.6361 103.62 72.2581 105.246 71.266 107.533C70.77 108.663 70.1361 110.316 69.6401 112.714C69.144 115.084 69.0338 117.013 69.0338 117.895C69.0338 120.292 69.9432 121.781 72.0377 121.781C74.1321 121.781 75.4274 120.348 76.5021 118.005Z" fill="white"/>
<path d="M82.8131 121.725L84.9902 121.092L89.372 104.309L87.2224 103.675L87.3878 103.151H94.112L93.9742 103.675L91.8247 104.309L87.3602 121.395H92.0727C93.7538 120.017 95.3521 117.812 96.2891 116.076H96.8128L94.7734 122.249H82.6753L82.8131 121.725Z" fill="white"/>
<path d="M98.5489 121.725L100.726 121.092L105.108 104.309L102.958 103.675L103.124 103.151H116.021L114.753 108.663H114.257C114.175 107.092 114.009 105.218 113.155 104.005H107.643L105.521 111.997H108.663C109.931 111.363 110.73 110.013 111.419 108.442H111.997L109.875 116.379H109.297C109.434 115.084 109.242 113.265 108.498 112.824H105.328L103.179 121.092L105.273 121.725L105.108 122.249H98.4111L98.5489 121.725Z" fill="white"/>
</g>
<defs>
<clipPath id="clip0_2_63">
<rect width="164" height="164" fill="white"/>
</clipPath>
</defs>
</svg>
