<svg width="94" height="20" viewBox="0 0 94 20" fill="none" xmlns="http://www.w3.org/2000/svg">
<g clip-path="url(#clip0_2_313)">
<path d="M8.70388 12.9487H8.04699L7.76416 11.3585C7.39009 10.6134 7.0434 10.1409 6.16754 9.89551C5.33729 9.89551 4.6804 10.4589 4.24246 11.5493C3.89577 12.4216 3.7133 13.1395 3.50346 14.3571C3.34836 15.2476 3.28449 16.0745 3.33011 16.8015C3.39397 17.91 3.95963 18.5189 4.92673 18.5189C6.14929 18.5189 7.08901 17.7556 7.94663 16.12L8.64914 16.6016C7.80065 18.4916 6.45949 20 4.07824 20C2.08018 20 0.0456285 18.8006 1.06982e-05 16.1926C-0.0182364 15.2567 0.109493 14.3662 0.346706 13.5393C1.13133 10.9496 3.63119 9.005 6.16754 9.005C7.85539 9.005 8.79512 9.53204 9.26954 9.89551L8.70388 12.9487Z" fill="white"/>
<path d="M13.2564 19.9818C10.5467 19.9818 9.10519 18.1281 9.05957 15.9927C9.04133 14.8569 9.27854 13.7483 9.71647 12.7669C10.7201 10.5679 12.8002 8.97772 15.5738 8.97772C18.0919 8.97772 19.7524 10.5861 19.798 12.7942C19.8162 14.2935 19.4696 15.6656 18.84 16.7833C17.727 18.7642 15.6924 19.9818 13.2655 19.9818H13.2564ZM16.5774 11.3948C16.5774 10.4134 16.1577 9.86823 15.4187 9.86823C14.6797 9.86823 14.041 10.1954 13.5392 11.2858C13.2108 11.9854 12.928 12.985 12.6178 14.448C12.2893 16.1018 12.2711 17.1286 12.2711 17.5011C12.2893 18.6097 12.7272 19.0731 13.448 19.0731C14.26 19.0731 14.8439 18.6824 15.3092 17.6374C15.6194 16.9377 15.9479 15.9382 16.2307 14.5025C16.5135 13.0849 16.5774 11.8219 16.5774 11.413V11.3948Z" fill="white"/>
<path d="M30.2447 16.7379C30.1808 17.0468 30.0713 17.4557 30.0713 17.692C30.0713 18.1463 30.2721 18.3462 30.6826 18.3462C31.1388 18.3462 31.668 17.8919 32.0603 17.3194L32.6077 17.7374C31.6223 19.3912 30.418 19.9818 28.9583 19.9818C28.0185 19.9818 27.2978 19.6547 26.9693 19.0005C26.8416 18.7188 26.7504 18.3916 26.7686 18.0009C25.4092 19.3548 24.3874 19.9818 22.9002 19.9818C21.4131 19.9818 20.6741 19.2367 20.6741 18.1917C20.6741 17.8828 20.7379 17.5193 20.7836 17.3376L22.4714 10.4589L21.0938 9.89551L21.2489 9.30487H25.9475L24.2231 16.3835C24.1593 16.6652 24.0954 16.9469 24.0954 17.2558C24.0954 17.8192 24.4056 18.0191 24.8162 18.0191C25.7376 18.0191 26.5223 17.3648 27.0241 16.8469L28.9035 9.31396H32.115L30.2538 16.7379H30.2447Z" fill="white"/>
<path d="M41.6217 12.9032H40.9465L40.7732 11.6402C40.5998 11.5493 40.2714 11.4221 39.8517 11.4221C39.0853 11.4221 38.5197 11.722 37.9905 12.2308L36.1293 19.7274H32.936L35.2078 10.468L33.8301 9.90459L33.9852 9.31395H38.6839L38.2003 11.2313C39.359 9.90459 40.4082 9.0777 41.7403 9.0777C42.087 9.0777 42.2877 9.09587 42.5249 9.16857L41.6034 12.9123L41.6217 12.9032Z" fill="white"/>
<path d="M50.1704 12.8396H49.5409L49.2307 11.2494C48.7745 10.5134 48.3366 10.0045 47.2874 9.87731C46.147 9.87731 45.563 10.4043 45.563 11.1404C45.563 12.0581 46.2199 12.3853 47.8166 13.2303C49.4771 14.1027 50.1339 15.0204 50.1339 16.4743C50.1339 18.4098 48.3822 19.9818 45.4536 19.9818C43.1362 19.9818 42.1326 19.3912 41.3662 18.955L41.9957 15.5384H42.6526L43.0449 17.4375C43.5285 18.2826 44.5321 18.9641 45.5995 19.0913C46.6305 19.0731 47.3695 18.5279 47.3695 17.4103C47.3695 16.5379 46.3385 16.129 44.9426 15.3203C43.2183 14.3389 42.8169 13.3848 42.8625 12.1399C42.9263 10.3317 44.5686 8.97772 47.2327 8.97772C49.03 8.97772 50.1431 9.47749 50.7361 9.83188L50.1704 12.8396Z" fill="white"/>
<path d="M55.9 14.6479C55.4438 14.6479 54.9146 14.5843 54.6956 14.5207C54.5405 15.1295 54.4584 15.9382 54.4584 16.3744C54.4584 17.7919 55.0058 18.5279 56.2284 18.5279C57.6243 18.5279 58.6553 17.8555 59.6224 16.2199L60.3705 16.6561C59.4034 18.6188 57.898 19.9909 55.5624 19.9909C52.9166 19.9909 51.2104 18.637 51.2104 16.0018C51.2104 14.6297 51.5206 13.3666 52.0863 12.3217C53.1811 10.2771 55.2339 8.98682 57.9071 8.98682C59.8778 8.98682 60.7537 9.94093 60.7537 11.3221C60.7537 12.9305 59.6406 14.657 55.9182 14.657L55.9 14.6479ZM57.3871 9.87732C56.6481 9.87732 55.9456 10.5952 55.462 11.7674C55.1518 12.5307 54.9329 13.2667 54.8234 13.7483C55.1974 13.7665 55.3252 13.7665 55.5259 13.7665C57.0586 13.7665 58.1535 12.4398 58.1535 10.9132C58.1535 10.3044 57.9163 9.86823 57.3871 9.86823V9.87732Z" fill="white"/>
<path d="M66.5473 16.6651C66.456 17.0377 66.3739 17.4103 66.3739 17.7101C66.3739 18.1281 66.5746 18.3462 66.9852 18.3462C67.4414 18.3462 67.9249 17.9736 68.3446 17.3467L68.9376 17.7828C67.9797 19.373 66.8392 19.9818 65.416 19.9818C63.8376 19.9818 63.0803 19.2004 63.0803 18.1917C63.0803 17.91 63.1259 17.5829 63.1898 17.3376L66.2553 5.07042L64.7226 4.58882L64.8959 3.93457H69.7314L66.5564 16.6561L66.5473 16.6651Z" fill="white"/>
<path d="M73.4172 16.6924C73.326 17.0377 73.2165 17.5375 73.2439 17.7828C73.2621 18.2008 73.4811 18.3462 73.8734 18.3462C74.3296 18.3462 74.8131 17.9282 75.2055 17.3467L75.7985 17.7828C74.9682 19.2004 73.8095 19.9818 72.3224 19.9818C70.7075 19.9818 69.9594 19.2004 69.9412 18.1917C69.9412 17.9918 69.9868 17.5829 70.0506 17.3648L71.775 10.4589L70.3791 9.89549L70.5342 9.30485H75.2784L73.4172 16.6924ZM74.0741 7.4148C73.0432 7.4148 72.2129 6.58791 72.1947 5.5611C72.1947 4.53429 72.9793 3.7074 74.0103 3.7074C75.0412 3.7074 75.8441 4.53429 75.8441 5.5611C75.8897 6.58791 75.0777 7.4148 74.0741 7.4148Z" fill="white"/>
<path d="M84.6848 12.8396H84.0553L83.7451 11.2494C83.2889 10.5134 82.851 10.0045 81.8018 9.87731C80.6614 9.87731 80.0775 10.4043 80.0775 11.1404C80.0775 12.0581 80.7343 12.3853 82.331 13.2303C83.9915 14.1027 84.6484 15.0204 84.6484 16.4743C84.6484 18.4098 82.8966 19.9818 79.968 19.9818C77.6506 19.9818 76.647 19.3912 75.8806 18.955L76.5101 15.5384H77.167L77.5594 17.4375C78.0429 18.2826 79.0465 18.9641 80.1139 19.0913C81.1449 19.0731 81.8839 18.5279 81.8839 17.4103C81.8839 16.5379 80.853 16.129 79.457 15.3203C77.7327 14.3389 77.3313 13.3848 77.3769 12.1399C77.4407 10.3317 79.083 8.97772 81.7471 8.97772C83.5444 8.97772 84.6575 9.47749 85.2505 9.83188L84.6848 12.8396Z" fill="white"/>
<path d="M93.6898 10.2863H91.2629L89.7575 16.6652C89.6936 16.9741 89.6298 17.3013 89.6298 17.6011C89.6298 18.1918 89.8944 18.3462 90.3049 18.3462C90.7611 18.3462 91.3359 17.9101 91.7464 17.2831L92.2939 17.7192C91.3359 19.2913 90.2775 19.9818 88.4711 19.9818C87.0752 19.9818 86.2632 19.2004 86.2632 18.1918C86.2632 17.9282 86.3088 17.6284 86.3544 17.4103L88.0149 10.5043L86.4821 10.0046L86.7011 9.30488H88.1883C89.1736 8.71424 90.3779 7.7147 91.3632 6.12451H92.303L91.5366 9.30488H94.0091L93.6989 10.2863H93.6898Z" fill="white"/>
<path d="M43.8477 6.45162L43.72 6.10632C43.3459 6.33349 42.8898 6.55157 42.2238 6.55157C40.8005 6.55157 40.3625 5.53386 40.3625 4.31623C40.3625 3.98002 40.4082 3.56202 40.4812 3.22581C40.8096 1.64471 41.8314 0.00909424 43.6653 0.00909424C44.4864 0.00909424 45.0064 0.318045 45.2345 0.463433L44.8696 1.89006H44.6962L44.5959 0.990466C44.4408 0.654256 44.2309 0.345305 43.6014 0.281698C42.8259 0.281698 42.2694 0.790557 41.9044 1.56293C41.7493 1.89006 41.5395 2.48978 41.3661 3.27125C41.1928 4.07997 41.1654 4.6797 41.1654 4.96139C41.1654 5.73376 41.4756 6.26988 42.3059 6.26988C42.7712 6.26988 43.2821 5.99728 43.4189 5.74285L43.8204 4.27988L43.0722 4.07088L43.1179 3.89824H45.2801L45.2345 4.07088L44.5868 4.27988L44.0028 6.45162H43.8477Z" fill="white"/>
<path d="M46.53 4.31622C46.53 3.70741 46.6304 3.07133 46.8402 2.4716C47.3055 1.12676 48.2635 0 49.6229 0C50.809 0 51.3564 0.926851 51.3564 2.26261C51.3564 2.78055 51.2834 3.31667 51.1374 3.82553C50.7086 5.30668 49.6868 6.55157 48.2544 6.55157C47.0136 6.55157 46.53 5.53385 46.53 4.31622ZM49.7963 5.02499C49.9514 4.68878 50.1612 4.17083 50.3528 3.28033C50.5353 2.41708 50.5535 1.90822 50.5535 1.53567C50.5535 0.79055 50.2524 0.28169 49.5499 0.28169C48.8474 0.28169 48.3912 0.81781 48.0628 1.57201C47.8986 1.94457 47.6887 2.48978 47.5245 3.28033C47.3603 4.06179 47.3238 4.69786 47.3238 4.98864C47.3238 5.77919 47.6249 6.26988 48.3182 6.26988C49.0116 6.26988 49.4404 5.79736 49.7963 5.02499Z" fill="white"/>
<path d="M51.8857 6.25169L52.6065 6.04269L54.0571 0.508842L53.3455 0.299846L53.4002 0.127197H55.6264L55.5807 0.299846L54.8691 0.508842L53.3911 6.14264H54.9512C55.5078 5.68831 56.0369 4.96136 56.3471 4.3889H56.5205L55.8453 6.42434H51.8401L51.8857 6.25169Z" fill="white"/>
<path d="M57.0952 6.25169L57.8159 6.04269L59.2666 0.508842L58.5549 0.299846L58.6097 0.127197H62.8795L62.4598 1.94455H62.2956C62.2682 1.42661 62.2135 0.808706 61.9307 0.408887H60.106L59.4034 3.04405H60.4435C60.8632 2.83506 61.1278 2.38981 61.3559 1.87186H61.5475L60.845 4.48885H60.6534C60.699 4.06177 60.6351 3.46204 60.3888 3.31666H59.3396L58.6279 6.04269L59.3213 6.25169L59.2666 6.42434H57.0496L57.0952 6.25169Z" fill="white"/>
</g>
<defs>
<clipPath id="clip0_2_313">
<rect width="94" height="20" fill="white"/>
</clipPath>
</defs>
</svg>
